<svg xmlns="http://www.w3.org/2000/svg" viewBox="0 0 200 100">
  <path d="M30 50 L40 30 L60 70 L80 40 L100 60 L120 30" stroke="#00BFD8" stroke-width="4" fill="none"/>
  <path d="M120 30 Q140 10 160 30" stroke="#00BFD8" stroke-width="4" fill="none"/>
  <path d="M160 30 L180 50" stroke="#00BFD8" stroke-width="4" fill="none"/>
  <path d="M10 50 L30 50" stroke="#00BFD8" stroke-width="4" fill="none"/>
  <path d="M180 50 L190 50" stroke="#00BFD8" stroke-width="4" fill="none"/>
  <path d="M100 60 Q100 80 120 80 Q140 80 140 60 Q140 40 120 40 Q100 40 100 60 Z" stroke="#00BFD8" stroke-width="4" fill="none"/>
  <rect x="10" y="45" width="10" height="10" rx="2" fill="#00BFD8"/>
  <rect x="190" y="45" width="10" height="10" rx="2" fill="#00BFD8"/>
  <rect x="20" y="45" width="5" height="10" rx="2" fill="#00BFD8"/>
  <rect x="175" y="45" width="5" height="10" rx="2" fill="#00BFD8"/>
</svg>
